<svg xmlns="http://www.w3.org/2000/svg" viewBox="0 0 640 360" role="img" aria-labelledby="title desc">
  <title id="title">Class Insight</title>
  <desc id="desc">A stylized class analytics dashboard with bars and badges.</desc>
  <defs>
    <linearGradient id="bg2" x1="0" y1="0" x2="1" y2="1">
      <stop offset="0%" stop-color="#275f76"/>
      <stop offset="100%" stop-color="#1e4a5f"/>
    </linearGradient>
    <linearGradient id="bar" x1="0" y1="0" x2="1" y2="0">
      <stop offset="0%" stop-color="#ed8771"/>
      <stop offset="100%" stop-color="#efab9c"/>
    </linearGradient>
  </defs>
  <rect width="640" height="360" rx="28" fill="url(#bg2)"/>
  <rect x="60" y="60" width="220" height="120" rx="16" fill="#335f73" stroke="#8eb8cb" opacity="0.9"/>
  <rect x="87" y="88" width="165" height="12" rx="6" fill="#d2e7f0" opacity="0.86"/>
  <rect x="87" y="112" width="132" height="10" rx="5" fill="#aac9d8"/>
  <rect x="87" y="135" width="148" height="10" rx="5" fill="#aac9d8" opacity="0.84"/>
  <g>
    <rect x="332" y="72" width="246" height="20" rx="10" fill="#9ec3d2" opacity="0.25"/>
    <rect x="332" y="72" width="170" height="20" rx="10" fill="url(#bar)"/>
    <rect x="332" y="112" width="246" height="20" rx="10" fill="#9ec3d2" opacity="0.25"/>
    <rect x="332" y="112" width="206" height="20" rx="10" fill="url(#bar)"/>
    <rect x="332" y="152" width="246" height="20" rx="10" fill="#9ec3d2" opacity="0.25"/>
    <rect x="332" y="152" width="146" height="20" rx="10" fill="url(#bar)"/>
  </g>
  <g>
    <circle cx="108" cy="250" r="36" fill="#ed8771"/>
    <circle cx="205" cy="250" r="36" fill="#7db1c9"/>
    <circle cx="302" cy="250" r="36" fill="#f1b3a5"/>
    <circle cx="399" cy="250" r="36" fill="#5d9ab7"/>
    <circle cx="496" cy="250" r="36" fill="#9bc6d9"/>
  </g>
</svg>
